<svg width="14" height="14" viewBox="0 0 14 14" fill="none" xmlns="http://www.w3.org/2000/svg">
<path d="M11.0837 1.16667C10.6713 1.16589 10.2721 1.31106 9.95652 1.57646C9.64098 1.84187 9.42956 2.21038 9.35969 2.61674C9.28982 3.02309 9.36602 3.44106 9.57479 3.79661C9.78356 4.15217 10.1114 4.42236 10.5003 4.55934V6.41667H3.50033V4.55934C3.88954 4.42173 4.21757 4.15097 4.42645 3.79489C4.63533 3.43882 4.7116 3.02037 4.64179 2.6135C4.57199 2.20662 4.36059 1.83753 4.04496 1.57144C3.72934 1.30536 3.32981 1.15942 2.917 1.15942C2.50418 1.15942 2.10465 1.30536 1.78903 1.57144C1.4734 1.83753 1.26201 2.20662 1.1922 2.6135C1.12239 3.02037 1.19867 3.43882 1.40754 3.79489C1.61642 4.15097 1.94445 4.42173 2.33366 4.55934V6.41667C2.33366 6.72609 2.45658 7.02284 2.67537 7.24163C2.89416 7.46042 3.19091 7.58334 3.50033 7.58334H6.417V10.024C6.02779 10.1616 5.69976 10.4324 5.49088 10.7885C5.282 11.1445 5.20572 11.563 5.27553 11.9699C5.34534 12.3767 5.55674 12.7458 5.87236 13.0119C6.18799 13.278 6.58751 13.4239 7.00033 13.4239C7.41315 13.4239 7.81267 13.278 8.1283 13.0119C8.44392 12.7458 8.65532 12.3767 8.72513 11.9699C8.79494 11.563 8.71866 11.1445 8.50978 10.7885C8.3009 10.4324 7.97287 10.1616 7.58366 10.024V7.58334H10.5003C10.8097 7.58334 11.1065 7.46042 11.3253 7.24163C11.5441 7.02284 11.667 6.72609 11.667 6.41667V4.55934C12.0559 4.42236 12.3838 4.15217 12.5925 3.79661C12.8013 3.44106 12.8775 3.02309 12.8076 2.61674C12.7378 2.21038 12.5263 1.84187 12.2108 1.57646C11.8953 1.31106 11.496 1.16589 11.0837 1.16667V1.16667ZM2.917 3.50001C2.80162 3.50001 2.68884 3.46579 2.59291 3.4017C2.49698 3.3376 2.42222 3.2465 2.37807 3.1399C2.33391 3.03331 2.32236 2.91603 2.34487 2.80287C2.36738 2.68971 2.42294 2.58577 2.50452 2.50419C2.5861 2.42261 2.69004 2.36706 2.80319 2.34455C2.91635 2.32204 3.03364 2.33359 3.14023 2.37774C3.24682 2.42189 3.33792 2.49666 3.40202 2.59259C3.46612 2.68852 3.50033 2.8013 3.50033 2.91667C3.50033 3.07138 3.43887 3.21976 3.32947 3.32915C3.22008 3.43855 3.07171 3.50001 2.917 3.50001ZM7.00033 12.25C6.88496 12.25 6.77218 12.2158 6.67625 12.1517C6.58032 12.0876 6.50555 11.9965 6.4614 11.8899C6.41725 11.7833 6.4057 11.666 6.4282 11.5529C6.45071 11.4397 6.50627 11.3358 6.58785 11.2542C6.66943 11.1726 6.77337 11.1171 6.88653 11.0945C6.99968 11.072 7.11697 11.0836 7.22356 11.1277C7.33015 11.1719 7.42126 11.2467 7.48535 11.3426C7.54945 11.4385 7.58366 11.5513 7.58366 11.6667C7.58366 11.8214 7.5222 11.9698 7.41281 12.0792C7.30341 12.1885 7.15504 12.25 7.00033 12.25ZM11.0837 3.50001C10.9683 3.50001 10.8555 3.46579 10.7596 3.4017C10.6637 3.3376 10.5889 3.2465 10.5447 3.1399C10.5006 3.03331 10.489 2.91603 10.5115 2.80287C10.534 2.68971 10.5896 2.58577 10.6712 2.50419C10.7528 2.42261 10.8567 2.36706 10.9699 2.34455C11.083 2.32204 11.2003 2.33359 11.3069 2.37774C11.4135 2.42189 11.5046 2.49666 11.5687 2.59259C11.6328 2.68852 11.667 2.8013 11.667 2.91667C11.667 3.07138 11.6055 3.21976 11.4961 3.32915C11.3867 3.43855 11.2384 3.50001 11.0837 3.50001Z" fill="black"/>
</svg>
