<svg width="32" height="32" viewBox="0 0 32 32" fill="none" xmlns="http://www.w3.org/2000/svg">
<path d="M17.3333 28V31.3333L13.3333 28.6666L9.33333 31.3333V28H8.66667C7.42899 28 6.24201 27.5083 5.36684 26.6331C4.49167 25.758 4 24.571 4 23.3333V6.66663C4 5.60576 4.42143 4.58834 5.17157 3.8382C5.92172 3.08805 6.93913 2.66663 8 2.66663H26.6667C27.0203 2.66663 27.3594 2.8071 27.6095 3.05715C27.8595 3.3072 28 3.64634 28 3.99996V26.6666C28 27.0202 27.8595 27.3594 27.6095 27.6094C27.3594 27.8595 27.0203 28 26.6667 28H17.3333ZM17.3333 25.3333H25.3333V21.3333H8.66667C8.13623 21.3333 7.62753 21.544 7.25245 21.9191C6.87738 22.2942 6.66667 22.8029 6.66667 23.3333C6.66667 23.8637 6.87738 24.3724 7.25245 24.7475C7.62753 25.1226 8.13623 25.3333 8.66667 25.3333H9.33333V22.6666H17.3333V25.3333ZM25.3333 18.6666V5.33329H8V18.7133C8.22084 18.682 8.44362 18.6664 8.66667 18.6666H25.3333ZM9.33333 6.66663H12V9.33329H9.33333V6.66663ZM9.33333 10.6666H12V13.3333H9.33333V10.6666ZM9.33333 14.6666H12V17.3333H9.33333V14.6666Z" fill="black"/>
</svg>
